<?xml version="1.0" encoding="UTF-8"?> <!-- Generator: Adobe Illustrator 21.1.0, SVG Export Plug-In . SVG Version: 6.00 Build 0) --> <svg xmlns="http://www.w3.org/2000/svg" xmlns:xlink="http://www.w3.org/1999/xlink" id="Layer_1" x="0px" y="0px" viewBox="0 0 141.9 141.9" style="enable-background:new 0 0 141.9 141.9;" xml:space="preserve"> <style type="text/css"> .st0{fill:#00B4EB;} </style> <g> <g> <path class="st0" d="M72.2,131.9c-14.9,0-29.3-5.4-40.6-15.1l-1.8-1.6l19.1-19.1l1.6,1.2c6.3,4.9,13.8,7.5,21.7,7.5 c17.8,0,32.9-13.3,35-31l0.2-2h27l-0.2,2.4C131.9,106.6,104.6,131.9,72.2,131.9z M36.4,115c10.2,8,22.8,12.4,35.8,12.4 c29.2,0,54-22.2,57.3-51h-18.2c-3.2,19-19.7,33-39.2,33c-8.3,0-16.2-2.5-22.9-7.3L36.4,115z"></path> <path class="st0" d="M26.6,112.1l-1.6-1.8C15.3,99,10,84.6,10,69.7C10,37.3,35.3,10,67.5,7.6L70,7.5v27l-2,0.2 c-17.7,2.1-31,17.2-31,35c0,8,2.6,15.5,7.5,21.7l1.2,1.6L26.6,112.1z M65.5,12.4c-28.8,3.4-51,28.1-51,57.3 c0,13,4.4,25.6,12.4,35.8l12.9-12.9C35,85.9,32.5,78,32.5,69.7c0-19.4,14.1-35.9,33-39.2V12.4z"></path> </g> <g> <path class="st0" d="M65.1,141.4c-1.6-0.2-3.1-0.4-4.7-0.6l0.7-4.4c1.4,0.2,2.9,0.4,4.4,0.6L65.1,141.4z M55.8,139.9 c-1.5-0.4-3.1-0.8-4.6-1.2l1.3-4.3c1.4,0.4,2.9,0.8,4.3,1.1L55.8,139.9z M46.8,137.2c-1.5-0.6-2.9-1.2-4.4-1.8l1.9-4.1 c1.3,0.6,2.7,1.2,4.1,1.7L46.8,137.2z M38.2,133.3c-1.4-0.7-2.8-1.5-4.1-2.4l2.4-3.8c1.2,0.8,2.5,1.5,3.8,2.2L38.2,133.3z M30.2,128.3c-1.3-0.9-2.5-1.9-3.7-2.9l2.9-3.5c1.1,0.9,2.3,1.8,3.5,2.7L30.2,128.3z M22.9,122.3c-1.1-1.1-2.3-2.2-3.3-3.3 l3.3-3.1c1,1.1,2.1,2.1,3.1,3.1L22.9,122.3z M16.5,115.4c-1-1.2-2-2.5-2.9-3.7l3.7-2.6c0.9,1.2,1.8,2.4,2.7,3.5L16.5,115.4z M11,107.8c-0.8-1.3-1.6-2.7-2.4-4.1l4-2.1c0.7,1.3,1.4,2.6,2.2,3.8L11,107.8z M6.5,99.4c-0.6-1.4-1.3-2.9-1.8-4.4l4.2-1.6 c0.5,1.4,1.1,2.8,1.7,4.1L6.5,99.4z M3.2,90.6c-0.5-1.5-0.9-3-1.2-4.6l4.4-1c0.3,1.4,0.7,2.9,1.1,4.3L3.2,90.6z M1.1,81.4 c-0.3-1.5-0.5-3.1-0.6-4.7l4.5-0.4c0.1,1.5,0.3,2.9,0.6,4.4L1.1,81.4z"></path> <rect x="70.1" y="137.4" class="st0" width="4.5" height="4.5"></rect> <rect y="67.4" class="st0" width="4.5" height="4.5"></rect> </g> <g> <path class="st0" d="M107.5,9.4c-1.3-0.8-2.7-1.5-4.1-2.2L77.9,32.6c1.8,0.3,3.5,0.7,5.2,1.2L107.5,9.4z"></path> <path class="st0" d="M114.2,13.9c-1.2-0.9-2.5-1.8-3.7-2.6L86.7,35.1c1.5,0.6,2.9,1.3,4.3,2.1L114.2,13.9z"></path> <path class="st0" d="M100,5.6c-1.5-0.6-3-1.3-4.6-1.8L76.7,22.5v6.4L100,5.6z"></path> <path class="st0" d="M76.7,0v6.4l5.7-5.7C80.6,0.3,78.6,0.1,76.7,0L76.7,0z"></path> <path class="st0" d="M120.3,19.1c-1.1-1-2.2-2-3.4-3l-23,23c1.2,0.9,2.4,1.8,3.5,2.8L120.3,19.1z"></path> <path class="st0" d="M91.7,2.6c-1.7-0.5-3.4-0.9-5.1-1.3l-9.9,9.9v6.4L91.7,2.6z"></path> <path class="st0" d="M134.7,38.5c-0.7-1.4-1.4-2.8-2.2-4.1l-24.4,24.4c0.5,1.7,0.9,3.4,1.2,5.2L134.7,38.5z"></path> <path class="st0" d="M125.8,24.9c-1-1.2-2-2.3-3-3.4L99.9,44.4c1,1.1,2,2.3,2.8,3.5L125.8,24.9z"></path> <path class="st0" d="M138.1,46.5c-0.5-1.5-1.2-3.1-1.8-4.6L113,65.2h6.4L138.1,46.5z"></path> <path class="st0" d="M140.5,55.3c-0.4-1.7-0.8-3.4-1.3-5.1l-15,15h6.4L140.5,55.3z"></path> <path class="st0" d="M141.9,65.2c-0.1-1.9-0.3-3.9-0.6-5.7l-5.7,5.7L141.9,65.2L141.9,65.2z"></path> <path class="st0" d="M130.6,31.4c-0.8-1.3-1.7-2.5-2.6-3.7l-23.3,23.3c0.8,1.4,1.5,2.8,2.1,4.3L130.6,31.4z"></path> </g> <g> <path class="st0" d="M74.9,88h-5.4c-2.7,0-5.3-1.1-7.3-3c-2-2-3-4.6-3-7.3h4.5c0,1.5,0.6,3,1.7,4.1c1.1,1.1,2.5,1.7,4.1,1.7h5.4 c1.5,0,3-0.6,4.1-1.7c1.1-1.1,1.7-2.5,1.7-4.1c0-1.5-0.6-3-1.7-4.1c-1.1-1.1-2.6-1.7-4.1-1.7h-5.4c-2.7,0-5.3-1.1-7.3-3 c-1.9-1.9-3-4.5-3-7.3c0-2.7,1.1-5.3,3-7.3c2-2,4.6-3,7.3-3h5.4c2.7,0,5.3,1.1,7.3,3c2,2,3,4.6,3,7.3h-4.5c0-1.5-0.6-3-1.7-4.1 c-1.1-1.1-2.6-1.7-4.1-1.7h-5.4c-1.5,0-3,0.6-4.1,1.7c-1.1,1.1-1.7,2.5-1.7,4.1c0,1.6,0.6,3,1.7,4.1c1.1,1.1,2.6,1.7,4.1,1.7h5.4 c2.7,0,5.3,1.1,7.3,3c1.9,1.9,3,4.5,3,7.3c0,2.7-1.1,5.3-3,7.3C80.2,86.9,77.6,88,74.9,88z"></path> <rect x="70" y="47.2" class="st0" width="4.5" height="6.4"></rect> <rect x="70" y="85.8" class="st0" width="4.5" height="6.4"></rect> </g> </g> </svg> 