<?xml version="1.0" encoding="UTF-8"?> <!-- Generator: Adobe Illustrator 21.1.0, SVG Export Plug-In . SVG Version: 6.00 Build 0) --> <svg xmlns="http://www.w3.org/2000/svg" xmlns:xlink="http://www.w3.org/1999/xlink" id="Layer_1" x="0px" y="0px" viewBox="0 0 142 142" style="enable-background:new 0 0 142 142;" xml:space="preserve"> <style type="text/css"> .st0{clip-path:url(#SVGID_2_);fill:#00B4EB;} </style> <g> <defs> <rect id="SVGID_1_" width="142" height="142"></rect> </defs> <clipPath id="SVGID_2_"> <use xlink:href="#SVGID_1_" style="overflow:visible;"></use> </clipPath> <path class="st0" d="M103.2,69l6.5-6.5l5.1,5.1l3.6-3.6l-8.6-8.6L86.2,31.8L78,23.6l-3.6,3.6l5.1,5.1L73,38.8 c-10.1,10.1-10.4,19.3-8.8,25.4c-6-1.6-15.3-1.3-25.4,8.8l-6.5,6.5l-5.1-5.1L23.7,78l8.6,8.6l24.9,24.9l6.8,6.8l3.6-3.6l-5.1-5.1 l6.5-6.5c10.1-10.1,10.4-19.3,8.8-25.4C83.8,79.4,93.1,79.2,103.2,69 M65.5,99.7l-6.5,6.5L35.8,83.1l6.5-6.5 c11.9-11.9,21.6-7.8,25.3-5.4l2,1.2l1.3,2.1C73.3,78.1,77.4,87.8,65.5,99.7 M74.4,70.9l-1.9-1.2l-1.3-2.1 c-2.3-3.6-6.4-13.3,5.5-25.2l6.5-6.5l23.1,23.1l-6.5,6.5C87.8,77.4,78.1,73.3,74.4,70.9"></path> <path class="st0" d="M134.2,52.3c4.9,16.3,3.3,33.5-4.4,48.7c-5.6,11.1-14.2,20.3-24.9,26.6c-10.3,6.2-22.2,9.4-34.2,9.4 c-10.4,0-20.4-2.4-29.7-7.2l-14.3-7.3l14.7,0l0-5l-30.1,0l17.7,24.4l4.1-3L24.5,127l14.2,7.3c10,5.1,20.8,7.7,31.9,7.7 c27,0.1,51.3-14.8,63.6-38.7c8.4-16.4,9.7-34.5,5.2-51H134.2z"></path> <path class="st0" d="M12.2,41C17.9,30,26.5,20.8,37.1,14.4C47.4,8.3,59.3,5,71.3,5c10.4,0,20.4,2.4,29.7,7.2l14.3,7.3l-14.7,0l0,5 l30.1,0L112.9,0.2l-4.1,3l8.6,11.9l-14.2-7.3C93.2,2.6,82.5,0,71.3,0C44.3-0.1,20,14.8,7.7,38.8c-8.3,16.4-9.7,34.5-5.2,51h5.3 C3,73.4,4.5,56.2,12.2,41"></path> </g> </svg> 