<?xml version="1.0" encoding="UTF-8"?> <!-- Generator: Adobe Illustrator 21.1.0, SVG Export Plug-In . SVG Version: 6.00 Build 0) --> <svg xmlns="http://www.w3.org/2000/svg" xmlns:xlink="http://www.w3.org/1999/xlink" id="Layer_1" x="0px" y="0px" viewBox="0 0 144 125.4" style="enable-background:new 0 0 144 125.4;" xml:space="preserve"> <style type="text/css"> .st0{fill:#00B4EB;} </style> <g> <path class="st0" d="M144,125.4H13.2L48.7,90l12.4,12.4L91,72.5L144,125.4z M23.9,121h109.5L91,78.7l-29.9,29.9L48.7,96.2L23.9,121 z"></path> <rect x="115.6" y="60.2" transform="matrix(0.707 -0.7072 0.7072 0.707 -25.8728 108.3089)" class="st0" width="4.4" height="50.3"></rect> <polygon class="st0" points="25.6,85.3 22.5,82.2 70.1,34.6 83.7,48.1 80.5,51.3 70.1,40.8 "></polygon> <g> <polygon class="st0" points="3.1,124.8 0,121.7 48.7,73 61.1,85.4 110.4,36.1 113.5,39.3 61.1,91.7 48.7,79.2 "></polygon> <polygon class="st0" points="114.2,52.7 109.8,52.7 109.8,39.9 97,39.9 97,35.5 114.2,35.5 "></polygon> </g> <g> <path class="st0" d="M98.9,22.4h-31V0h31l-6.3,11.2L98.9,22.4z M72.3,18h19l-3.8-6.8l3.8-6.8h-19V18z"></path> <rect x="67.9" y="2.2" class="st0" width="4.4" height="35.5"></rect> </g> </g> </svg> 