<?xml version="1.0" encoding="UTF-8"?> <!-- Generator: Adobe Illustrator 21.1.0, SVG Export Plug-In . SVG Version: 6.00 Build 0) --> <svg xmlns="http://www.w3.org/2000/svg" xmlns:xlink="http://www.w3.org/1999/xlink" id="Layer_1" x="0px" y="0px" viewBox="0 0 144.9 109" style="enable-background:new 0 0 144.9 109;" xml:space="preserve"> <style type="text/css"> .st0{fill:#00B4EB;} </style> <g> <path class="st0" d="M109.3,73.8l-2.5,2.5l0,0c1.4,1.4,1.4,3.7,0,5.1c-1.4,1.4-3.7,1.4-5.1,0L81.3,61.1c-0.7-0.7-1.8-0.7-2.5,0 c-0.7,0.7-0.7,1.8,0,2.5L99.1,84l2.5,2.5c1.4,1.4,1.4,3.7,0,5.1s-3.7,1.4-5.1,0L73.7,68.7c-0.7-0.7-1.8-0.7-2.5,0 c-0.7,0.7-0.7,1.8,0,2.5L94,94.1c1.4,1.4,1.4,3.7,0,5.1c-1.4,1.4-3.7,1.4-5.1,0l-2.5-2.5L66,76.3c-0.7-0.7-1.8-0.7-2.5,0 c-0.7,0.7-0.7,1.8,0,2.5l20.3,20.3c1.4,1.4,1.4,3.7,0,5.1c-1.4,1.4-3.7,1.4-5.1,0L38.1,63.7c-0.1-0.1-5.1-5.8-10.5-15l22.9-22.9 l9.3,0.9c1.8-1.7,4.1-2.8,6.5-3l0.1,0l-16.6-1.5l-0.8,0l-26,26l0.7,1.2c5.9,10.3,11.4,16.6,11.7,16.9l40.7,40.7 c2.8,2.8,7.4,2.8,10.2,0c1-1,1.7-2.3,2-3.7c2.7,1.3,6,0.8,8.2-1.4c1.5-1.5,2.2-3.5,2.1-5.5c2,0.1,4-0.6,5.5-2.1 c2.2-2.2,2.7-5.5,1.4-8.2c1.4-0.3,2.6-0.9,3.7-2C112.1,81.2,112.1,76.6,109.3,73.8L109.3,73.8z"></path> <path class="st0" d="M95.8,24.6l-29.2,2.6c-1.7,0.2-3.2,0.9-4.4,2.1L47,44.6c-2.8,2.8-2.8,7.4,0,10.2c2.8,2.8,7.4,2.8,10.2,0 l12.2-12.2h3.6l31.3,31.3l5.2-5.2c0.2-0.3,5.8-6.5,11.7-16.8l0.7-1.2L96.3,25.2L95.8,24.6z M106.7,66.2l-2.5,2.5L85.1,49.6L75.5,40 L74.4,39h-5.1h-1.5L54.6,52.2c-1.4,1.4-3.7,1.4-5.1,0c-1.4-1.4-1.4-3.7,0-5.1l15.3-15.3c0.6-0.6,1.4-1,2.2-1l13.3-1.2l4.7-0.4 l9.3-0.8l22.9,22.9C111.8,60.5,106.7,66.2,106.7,66.2z"></path> <path class="st0" d="M63.5,104.3c-1.4-1.4-1.4-3.7,0-5.1L61,96.7l-2.5,2.5c-1.4,1.4-3.7,1.4-5.1,0c-1.4-1.4-1.4-3.7,0-5.1l2.5-2.5 l-2.5-2.5l-2.5,2.5c-1.4,1.4-3.7,1.4-5.1,0s-1.4-3.7,0-5.1l2.5-2.5l-2.5-2.5c-1.4,1.4-3.7,1.4-5.1,0c-1.4-1.4-1.4-3.7,0-5.1 l-2.5-2.5c-2.8,2.8-2.8,7.4,0,10.2c1.1,1.1,2.4,1.7,3.7,2c-1.3,2.7-0.9,6,1.4,8.2c1.5,1.5,3.6,2.2,5.6,2.1c-0.1,2,0.5,4,2.1,5.6 c2.2,2.2,5.5,2.7,8.2,1.4c0.3,1.4,0.9,2.7,2,3.7c2.8,2.8,7.4,2.8,10.2,0l-2.5-2.5C67.2,105.7,64.9,105.7,63.5,104.3z"></path> <path class="st0" d="M30.5,0L0,30.5l17.8,17.8l30.5-30.5L30.5,0z M5.1,30.5L30.5,5.1l12.7,12.7L17.8,43.2L5.1,30.5z"></path> <path class="st0" d="M114.4,2.5L96.6,20.3l30.5,30.5l17.8-17.8L114.4,2.5z M101.7,20.3l12.7-12.7l25.4,25.4l-12.7,12.7L101.7,20.3z "></path> <ellipse transform="matrix(0.7071 -0.7071 0.7071 0.7071 -19.9576 23.0115)" class="st0" cx="17.8" cy="35.6" rx="1.8" ry="1.8"></ellipse> <ellipse transform="matrix(0.7071 -0.7071 0.7071 0.7071 10.2694 101.0703)" class="st0" cx="127.1" cy="38.1" rx="1.8" ry="1.8"></ellipse> </g> </svg> 