<?xml version="1.0" encoding="UTF-8"?> <!-- Generator: Adobe Illustrator 21.1.0, SVG Export Plug-In . SVG Version: 6.00 Build 0) --> <svg xmlns="http://www.w3.org/2000/svg" xmlns:xlink="http://www.w3.org/1999/xlink" id="Layer_1" x="0px" y="0px" viewBox="0 0 139.5 143.9" style="enable-background:new 0 0 139.5 143.9;" xml:space="preserve"> <style type="text/css"> .st0{fill:#00B4EB;} </style> <g> <g> <polygon class="st0" points="27.4,66.2 0,47.9 46.5,16.9 61.8,27.1 59.2,30.9 46.5,22.5 8.3,47.9 27.4,60.7 59.2,39.4 61.8,43.2 "></polygon> <polygon class="st0" points="112.1,66.2 77.7,43.2 80.3,39.4 112.1,60.7 131.2,47.9 93,22.5 80.3,30.9 77.7,27.1 93,16.9 139.5,47.9 "></polygon> <polygon class="st0" points="69.8,143.9 25.1,114.1 25.1,94.4 29.7,94.4 29.7,111.7 69.8,138.4 109.8,111.7 109.8,94.4 114.4,94.4 114.4,114.1 "></polygon> <path class="st0" d="M93,109.9L65.6,91.7l46.5-31l27.4,18.2L93,109.9z M73.9,91.7L93,104.4l38.2-25.5l-19.1-12.7L73.9,91.7z"></path> <path class="st0" d="M46.5,109.9L0,78.9l27.4-18.2l46.5,31L46.5,109.9z M8.3,78.9l38.2,25.5l19.1-12.7L27.4,66.2L8.3,78.9z"></path> <rect x="67.5" y="91.7" class="st0" width="4.6" height="49.5"></rect> <polygon class="st0" points="69.8,94.4 23.2,63.4 59.2,39.4 61.8,43.3 31.5,63.4 69.8,88.9 108,63.4 77.7,43.2 80.3,39.4 116.3,63.4 "></polygon> </g> <g> <rect x="67.5" y="3.3" class="st0" width="4.6" height="52.4"></rect> <polygon class="st0" points="78.4,15.1 69.8,6.5 61.2,15.1 57.9,11.9 69.8,0 81.6,11.9 "></polygon> </g> </g> </svg> 